<svg version="1.1" id="prefix__Camada_1" xmlns="http://www.w3.org/2000/svg" x="0" y="0" viewBox="0 0 362.32 100.81" xml:space="preserve"><style>.prefix__st0{fill:#5ebfbb}.prefix__st1{fill:#020203}</style><path class="prefix__st0" d="M145.52.57c5.01-1.07 10.2-.54 15.06.95 3.64 1.38 7.35-.37 11-.69 1.79 6.68 3.55 13.36 5.39 20.03-2.39.63-4.78 1.28-7.16 1.92-3.02-5.18-5.94-11.19-11.74-13.72-4.71-2.2-10.58-.78-14.04 3-3.99 4.25-5.21 10.35-5.04 16.01.1 6.5 2.31 13.32 7.25 17.75 4.06 3.72 10.39 4.17 15.21 1.76 4.82-2.32 8.36-6.48 11.72-10.5 1.93 1.43 3.87 2.86 5.82 4.28-3.42 4.08-6.74 8.46-11.39 11.23-8.71 5.28-20.27 6.16-29.33 1.21-10.96-5.9-16.42-19.55-13.93-31.54 1.82-10.63 10.48-19.82 21.18-21.69zM59.38 1.11c8.9-.13 17.8-.06 26.7-.06 0 2.54 0 5.09-.01 7.64-2.19.64-6.06-.3-6.31 2.87-.73 5.78-.1 11.66-.32 17.48.14 5.23-.56 10.87 1.86 15.71 3.49 6.23 13.67 5.48 16.92-.6 1.82-3.75 1.3-8.07 1.41-12.11-.25-7.17.37-14.37-.26-21.51-1.24-1.98-4.28-1.3-6.29-1.87.03-2.53.04-5.05.04-7.57 7.51-.08 15.01-.1 22.52.03-.02 2.54-.01 5.09.03 7.64-2.09.25-4.17.52-6.24.81-.82 9.82.08 19.68-.53 29.5-.37 5.53-3.09 10.97-7.77 14.06-7.98 5.31-19.18 5.29-27.18.03-4.52-2.82-7.57-7.81-7.79-13.16-.55-10.14.34-20.32-.52-30.44-2.09-.3-4.19-.56-6.28-.8.03-2.55.03-5.1.02-7.65zM249.24 1.09c8.89-.08 17.78-.09 26.67.01l.03 7.71c-2.15.22-4.29.45-6.42.72-.31 12.32-.49 24.7.01 37.01 3.83 1.26 8.13.36 11.76-1.18 4.99-2.23 7.57-7.34 9.73-12.05 2.29.75 4.58 1.49 6.89 2.22-2.22 6.87-4.77 13.62-7.05 20.47-13.87.07-27.74.08-41.61 0 .01-2.52 0-5.03-.02-7.54 2.08-.5 4.6-.24 6.23-1.86.54-3.5.26-7.05.3-10.57-.13-8.82.23-17.66-.28-26.48-2.08-.29-4.17-.54-6.26-.77.01-2.57.02-5.13.02-7.69zM352.56 6.51C345.98.85 336.77-.8 328.34.34c-8.75.95-16.94 6.15-21.15 13.93-3.67 6.72-4.16 14.81-2.55 22.19 2.22 9.74 10.44 17.81 20.26 19.74 9.61 2.02 20.66.72 28.26-5.97 12.3-11.01 12.33-33.18-.6-43.72zm-10.01 38.07c-3.5 4.5-10.28 5.86-15.25 3.1-4.76-2.51-7.13-7.87-7.93-12.96-1.02-6.83-.49-14.21 3.08-20.26 1.69-2.97 4.53-5.29 7.89-6.09 4.43-1.26 9.38.57 12.18 4.16 3.52 4.32 4.58 10.07 4.59 15.5.11 5.77-.94 11.9-4.56 16.55zM242.23 49.29c-2.37-1.77-5.27-3.24-6.12-6.33-5.41-13.95-10.75-27.94-16.09-41.92-4.17.01-8.34-.01-12.51.13-5.2 14.41-10.96 28.62-16.44 42.92-.68 2.89-3.46 3.89-6.04 4.49-.01 2.48-.01 4.95-.02 7.42 7.07.06 14.15.05 21.23.02l.03-7.76c-1.93-.22-3.86-.46-5.77-.72.73-2.85 1.56-5.68 2.38-8.51 5.73.03 11.46-.01 17.19.03.8 2.7 1.59 5.41 2.31 8.13-1.86.42-3.73.8-5.6 1.17-.03 2.55-.05 5.09-.07 7.64 8.61.07 17.23.05 25.84.02-.05-2.24.04-4.51-.32-6.73zm-36.22-18.28c1.91-5.01 3.72-10.07 5.61-15.1 1.99 4.97 3.71 10.05 5.41 15.12-3.67.01-7.35 0-11.02-.02zM49.87 32.18c-2.1-2.67-5.39-3.84-8.36-5.23 2.67-1.72 5.59-3.34 7.32-6.1 3.1-4.78 2.19-11.78-2.22-15.45-4.26-3.65-10.15-4.35-15.55-4.39-10.35.03-20.69.01-31.04.05C.01 3.61 0 6.17 0 8.73c1.86.22 3.75.34 5.57.8 1.17 1.56.96 3.61 1.07 5.44-.04 9.05-.05 18.09-.01 27.14-.11 1.83.13 3.89-1.06 5.43-1.82.47-3.7.58-5.56.8 0 2.56.01 5.11.02 7.67 10.35.03 20.7.08 31.05.01 6.08-.22 12.84-1.04 17.33-5.59 4.93-4.57 5.75-13 1.46-18.25zM20.13 10.07c4.84.15 10-.79 14.57 1.23 4.26 2.04 3.42 9.12-.89 10.64-4.37 1.66-9.15 1-13.72 1.1 0-4.33 0-8.65.04-12.97zM34.04 46c-4.38 1.66-9.19.95-13.77.89-.25-5.27-.2-10.56-.19-15.84 4.89.11 10.04-.65 14.71 1.16 5.59 2.47 4.66 11.64-.75 13.79z"></path><g><path class="prefix__st1" d="M.75 78.89v-.99l3.52.08 5.31-.11c1.04 0 1.86.11 2.46.32s1.12.6 1.55 1.16c.43.56.65 1.29.65 2.19 0 .9-.21 1.73-.62 2.5s-1.07 1.4-1.95 1.9-1.83.74-2.83.74c-.25 0-.5-.01-.74-.04s-.48-.07-.72-.12c-.08-.22-.22-.5-.43-.84l.25-.26c.17.06.34.1.49.12.15.03.3.04.42.04.77 0 1.4-.27 1.9-.81s.75-1.33.75-2.37c0-1.09-.26-1.9-.78-2.45s-1.25-.82-2.19-.82c-.44 0-.94.05-1.49.15-.04.49-.06 1.21-.07 2.16l-.04 2.33v4.5c0 1.11.02 2.26.05 3.45.02.69.07 1.13.13 1.31.03.08.09.15.16.21.08.06.21.1.41.14l1.6.11v1.05c-2.03-.05-3.55-.07-4.58-.07-1.13 0-2.2.02-3.22.07v-1.05c.88-.02 1.43-.08 1.66-.2.07-.04.13-.1.17-.18.06-.11.1-.4.13-.87.09-1.27.13-2.68.13-4.23v-4.2l-.05-2.23c-.02-.96-.03-1.56-.05-1.79-.02-.24-.06-.41-.11-.51a.51.51 0 00-.16-.17c-.08-.05-.21-.09-.41-.13l-1.3-.09zM38.16 93.64v.89c-.91-.04-1.72-.06-2.42-.06-.67 0-1.31.02-1.94.06l-.11-.13.11-1.56c-.29.18-1.13.81-2.52 1.88-.36.08-.7.12-1.02.12-.86 0-1.54-.25-2.03-.76-.49-.51-.73-1.24-.73-2.19 0-.64.11-1.17.33-1.58s.45-.72.7-.91c.25-.19.64-.38 1.16-.56 1.25-.44 2.62-.79 4.11-1.05.02-.94-.18-1.66-.58-2.15-.41-.49-1.04-.74-1.88-.74-.34 0-.67.04-.97.13-.13.04-.29.12-.48.24l-.5 1.2-.81-.18.07-1.53c.59-.4 1.14-.74 1.68-1.03.53-.29.9-.47 1.12-.53.29-.09.71-.13 1.24-.13.86 0 1.57.12 2.13.37.56.25.97.54 1.24.89.27.34.45.71.55 1.09.1.39.15.88.15 1.47 0 .25-.02.92-.06 1.98-.02.71-.04 1.3-.04 1.75 0 1.41.04 2.27.12 2.57.03.14.1.24.19.29.11.06.51.11 1.19.16zm-4.37-4.85c-.67.14-1.29.31-1.85.52s-.94.45-1.16.75c-.21.3-.32.67-.32 1.12 0 .51.13.9.39 1.18.26.28.6.42 1.02.42.36 0 .72-.1 1.08-.31.36-.21.64-.47.85-.78v-2.9zM55.78 94.45v4.4c0 .36.04.59.11.68s.2.16.39.2c.08.02.61.06 1.6.14v.94l-3.77-.08-3.11.08v-.94c.72 0 1.16-.03 1.33-.1.1-.03.17-.09.23-.17s.1-.18.11-.3c.04-.32.08-1 .11-2.04l.04-2.56v-5.5c0-1-.02-1.87-.05-2.62-.03-.75-.09-1.19-.17-1.33-.06-.09-.14-.15-.25-.2s-.55-.07-1.35-.08v-.93c1.18-.13 2.07-.26 2.67-.4.6-.14 1.22-.36 1.87-.64l.27.18-.04 2c.12-.1.32-.26.59-.49l1.19-.97c.08-.07.2-.18.36-.33.31-.13.57-.21.78-.26.21-.04.5-.07.87-.07.84 0 1.52.12 2.03.36.74.34 1.34.87 1.82 1.59.48.72.71 1.59.71 2.62 0 .65-.09 1.3-.26 1.94s-.37 1.15-.59 1.53c-.22.38-.45.7-.7.95-.18.19-.49.44-.92.76-.43.32-.83.63-1.19.93-.36.3-.63.5-.78.61-.25.16-.5.27-.73.33-.32.1-.69.14-1.11.14-.33 0-.67-.03-1.02-.1-.33-.06-.68-.15-1.04-.27zm0-2.28c.36.37.74.65 1.14.84.4.19.81.28 1.24.28.57 0 1.08-.14 1.52-.43.44-.29.78-.76 1.03-1.44.25-.67.37-1.45.37-2.33 0-.56-.06-1.1-.19-1.6s-.3-.91-.52-1.22c-.22-.31-.52-.57-.91-.78-.38-.21-.8-.31-1.25-.31-.44 0-.88.11-1.33.33-.45.22-.81.5-1.1.84v5.82zM87.98 92.7l-.52 1.16c-.65.4-1.32.69-2.01.88-.52.13-1.1.2-1.76.2-.78 0-1.48-.09-2.07-.27-.6-.18-1.11-.43-1.53-.75-.42-.32-.8-.71-1.12-1.16-.32-.46-.55-.99-.7-1.59a8.69 8.69 0 01-.21-1.97c0-1.04.14-1.97.42-2.78.19-.57.41-.98.67-1.24.16-.16.57-.46 1.24-.89s1.15-.72 1.45-.86c.55-.25 1.21-.37 1.96-.37 1.06 0 1.93.22 2.61.67s1.16 1.01 1.44 1.7.42 1.53.42 2.51c0 .22-.01.44-.02.64-.2.06-.5.13-.9.21-.54.1-.9.16-1.09.17-.59.05-1.38.08-2.35.08-.97.01-1.51.02-1.62.02-.1.01-.22.01-.34.01h-.78c.06 1.25.45 2.24 1.16 2.97s1.59 1.09 2.64 1.09c.45 0 .87-.05 1.25-.15.38-.1.88-.3 1.5-.61l.26.33zm-2.83-4.92c.03-1.26-.14-2.14-.51-2.65-.38-.5-.87-.75-1.47-.75-.62 0-1.13.26-1.53.78-.41.53-.6 1.4-.57 2.61.47.07 1.25.11 2.34.11.69.01 1.28-.03 1.74-.1zm-2.35-6.31h-1.44l2.79-3.39c.4-.49.73-.81.97-.96.24-.15.52-.22.83-.22.41 0 .74.12 1 .36.25.24.38.53.38.87 0 .23-.07.44-.21.63-.23.29-.63.6-1.2.93l-3.12 1.78zM101.63 94.53v-.88c.89-.06 1.39-.13 1.52-.21.13-.08.21-.22.24-.42.08-.44.12-1.56.12-3.36 0-2.48-.04-3.89-.11-4.23-.03-.16-.08-.26-.15-.31-.16-.1-.7-.16-1.62-.17v-.9c1.2-.13 2.1-.26 2.71-.4.61-.14 1.28-.36 2-.65l.29.15c-.1 1.24-.14 2.4-.14 3.48v4.04c0 1.38.03 2.19.1 2.45.03.14.1.24.19.29.21.1.73.17 1.56.2v.93c-1.13-.03-2.35-.05-3.67-.05-1.17-.01-2.17.01-3.04.04zm3.25-17.21c.51 0 .94.18 1.29.53.35.36.53.78.53 1.28 0 .51-.18.94-.53 1.3-.35.36-.78.53-1.29.53-.5 0-.93-.18-1.28-.53-.36-.36-.53-.79-.53-1.3 0-.5.18-.93.53-1.28.35-.35.78-.53 1.28-.53zM121.87 90.79h.95c.04.89.08 1.45.12 1.68.36.44.75.76 1.18.97s.92.31 1.47.31c.74 0 1.32-.18 1.71-.53.4-.36.59-.79.59-1.3 0-.33-.07-.61-.2-.83-.13-.22-.39-.42-.79-.6-.31-.11-.9-.26-1.78-.45s-1.54-.4-1.99-.63c-.45-.23-.8-.57-1.06-1.03s-.38-.99-.38-1.6c0-1.09.41-2 1.24-2.73.82-.73 2.01-1.09 3.55-1.09.64 0 1.23.06 1.77.17.54.11 1.03.28 1.46.5l.04.12c-.05.28-.08.56-.11.84-.02.29-.06.96-.11 2.02l-.92-.01c-.01-.09-.02-.23-.04-.44-.02-.36-.07-.7-.14-1.03-.25-.32-.55-.55-.91-.71s-.78-.24-1.27-.24c-.67 0-1.19.15-1.56.45-.37.3-.55.66-.55 1.08 0 .43.08.74.25.95.17.21.41.36.74.46s.93.24 1.8.4c.88.16 1.46.3 1.77.41.44.17.78.38 1.05.63s.46.57.6.94c.14.38.21.79.21 1.24 0 1.18-.46 2.18-1.37 2.98-.92.81-2.2 1.21-3.86 1.21-.55 0-1.09-.05-1.62-.15-.52-.1-1.16-.28-1.91-.54l-.13-.18c.06-.61.1-1.04.12-1.3l.08-1.97zM175.12 93.67v.86l-2.5-.04-2.14.04-.11-.1.06-.94.02-.97c-.55.46-1.15.97-1.79 1.55-.25.24-.5.44-.75.61-.3.12-.7.18-1.2.18-1.32 0-2.4-.48-3.27-1.44-.86-.96-1.3-2.28-1.3-3.95 0-.93.13-1.76.38-2.48.19-.55.41-.98.67-1.28.18-.22.72-.64 1.6-1.26.88-.62 1.52-1 1.9-1.15s.88-.22 1.49-.22c.38 0 .7.03.94.08s.68.2 1.29.44c.02-.46.04-.95.04-1.46 0-.6-.02-1.33-.06-2.19-.02-.41-.06-.67-.13-.77a.36.36 0 00-.24-.15c-.1-.02-.59-.05-1.46-.07v-.88c1.69-.17 3.25-.51 4.69-1.03l.31.18c-.1 2.12-.15 3.37-.15 3.74-.02 2.07-.04 4.96-.04 8.69v1.11c0 .54.02 1.12.06 1.75.02.44.06.72.12.81.06.1.15.17.27.22.14.02.57.07 1.3.12zm-4.7-7.59c-.44-.52-.79-.86-1.07-1.02-.52-.3-1.1-.45-1.72-.45-.55 0-.99.13-1.34.4-.34.27-.6.7-.77 1.29-.17.59-.26 1.28-.26 2.06 0 1.44.31 2.56.93 3.34.46.58 1.08.87 1.85.87.59 0 1.1-.17 1.54-.5s.7-.65.78-.96c.08-.31.12-1.25.12-2.83l-.06-2.2zM198.44 92.7l-.52 1.16c-.65.4-1.32.69-2.01.88-.52.13-1.1.2-1.76.2-.78 0-1.48-.09-2.07-.27-.6-.18-1.11-.43-1.53-.75-.42-.32-.8-.71-1.12-1.16-.32-.46-.55-.99-.7-1.59a8.69 8.69 0 01-.21-1.97c0-1.04.14-1.97.42-2.78.19-.57.41-.98.67-1.24.16-.16.57-.46 1.24-.89s1.15-.72 1.45-.86c.55-.25 1.21-.37 1.96-.37 1.06 0 1.93.22 2.61.67.68.44 1.16 1.01 1.44 1.7s.42 1.53.42 2.51c0 .22-.01.44-.02.64-.2.06-.5.13-.9.21-.54.1-.9.16-1.09.17-.59.05-1.38.08-2.35.08-.97.01-1.51.02-1.62.02-.1.01-.22.01-.34.01h-.78c.06 1.25.45 2.24 1.16 2.97s1.59 1.09 2.64 1.09c.45 0 .87-.05 1.25-.15.38-.1.88-.3 1.5-.61l.26.33zm-2.83-4.92c.03-1.26-.14-2.14-.51-2.65-.38-.5-.87-.75-1.47-.75-.62 0-1.13.26-1.53.78-.41.53-.6 1.4-.57 2.61.47.07 1.25.11 2.34.11.69.01 1.27-.03 1.74-.1zM229.79 78.89v-.99l3.52.08 5.31-.11c1.04 0 1.86.11 2.46.32.6.21 1.12.6 1.55 1.16.43.56.65 1.29.65 2.19 0 .9-.21 1.73-.62 2.5s-1.07 1.4-1.95 1.9c-.88.5-1.83.74-2.83.74-.25 0-.5-.01-.74-.04s-.48-.07-.72-.12c-.08-.22-.22-.5-.43-.84l.25-.26c.17.06.34.1.49.12.15.03.3.04.42.04.77 0 1.4-.27 1.9-.81s.75-1.33.75-2.37c0-1.09-.26-1.9-.78-2.45-.52-.55-1.25-.82-2.19-.82-.44 0-.94.05-1.49.15-.04.49-.06 1.21-.07 2.16l-.04 2.33v4.5c0 1.11.02 2.26.05 3.45.02.69.07 1.13.13 1.31.03.08.09.15.16.21.08.06.21.1.41.14l1.6.11v1.05c-2.03-.05-3.55-.07-4.58-.07-1.13 0-2.2.02-3.22.07v-1.05c.88-.02 1.43-.08 1.66-.2.07-.04.13-.1.17-.18.06-.11.1-.4.13-.87.09-1.27.13-2.68.13-4.23v-4.2l-.05-2.23c-.02-.96-.03-1.56-.05-1.79-.02-.24-.06-.41-.11-.51a.51.51 0 00-.16-.17c-.08-.05-.21-.09-.41-.13l-1.3-.09zM267.2 93.64v.89c-.91-.04-1.72-.06-2.42-.06-.67 0-1.31.02-1.94.06l-.11-.13.11-1.56c-.29.18-1.13.81-2.52 1.88-.36.08-.7.12-1.02.12-.86 0-1.54-.25-2.03-.76-.49-.51-.73-1.24-.73-2.19 0-.64.11-1.17.33-1.58.22-.41.45-.72.7-.91.25-.19.64-.38 1.16-.56 1.25-.44 2.62-.79 4.11-1.05.02-.94-.18-1.66-.58-2.15-.41-.49-1.04-.74-1.88-.74-.34 0-.67.04-.97.13-.13.04-.29.12-.48.24l-.5 1.2-.81-.18.07-1.53c.59-.4 1.14-.74 1.68-1.03.53-.29.9-.47 1.12-.53.29-.09.71-.13 1.24-.13.86 0 1.57.12 2.13.37.56.25.97.54 1.24.89.27.34.45.71.55 1.09.1.39.15.88.15 1.47 0 .25-.02.92-.06 1.98-.02.71-.04 1.3-.04 1.75 0 1.41.04 2.27.12 2.57.03.14.1.24.19.29.11.06.52.11 1.19.16zm-4.36-4.85c-.67.14-1.29.31-1.85.52s-.94.45-1.16.75c-.21.3-.32.67-.32 1.12 0 .51.13.9.39 1.18.26.28.6.42 1.02.42.36 0 .72-.1 1.08-.31.36-.21.64-.47.85-.78v-2.9zM287 93.62v.92c-.9-.04-1.89-.06-3-.06-1.23 0-2.5.02-3.83.06v-.92c.62 0 1.05-.04 1.28-.13a.5.5 0 00.25-.2c.08-.15.12-.44.13-.86l.05-1.06c.01-.22.01-.58.01-1.08v-1.56c0-.71-.02-1.56-.07-2.57-.02-.51-.06-.79-.1-.86s-.11-.12-.21-.15c-.15-.06-.6-.1-1.34-.12v-.92c1.44-.25 2.39-.43 2.84-.55s.96-.31 1.53-.57l.32.14-.02 2.4c.52-.53.91-.97 1.19-1.32.41-.49.72-.8.93-.94.29-.19.66-.29 1.13-.29.29 0 .56.05.8.14l-.07 1.69c-.02.92-.04 1.45-.06 1.58l-.5.15c-.2-.26-.39-.44-.57-.55a1.86 1.86 0 00-.96-.25c-.47 0-.87.14-1.21.43-.34.29-.54.58-.6.89-.03.17-.05.84-.05 2.01v1.19l.02 1.62c.01.61.03.98.07 1.12.04.14.12.25.24.33.13.08.4.13.82.17l.98.12zM311.63 92.7l-.52 1.16c-.65.4-1.32.69-2.01.88-.52.13-1.1.2-1.76.2-.78 0-1.48-.09-2.07-.27-.6-.18-1.11-.43-1.53-.75-.42-.32-.8-.71-1.12-1.16-.32-.46-.55-.99-.7-1.59a8.69 8.69 0 01-.21-1.97c0-1.04.14-1.97.42-2.78.19-.57.41-.98.67-1.24.16-.16.57-.46 1.24-.89.67-.44 1.15-.72 1.45-.86.55-.25 1.21-.37 1.96-.37 1.06 0 1.93.22 2.61.67.68.44 1.16 1.01 1.44 1.7s.42 1.53.42 2.51c0 .22-.01.44-.02.64-.2.06-.5.13-.9.21-.54.1-.9.16-1.09.17-.59.05-1.38.08-2.35.08-.97.01-1.51.02-1.62.02-.1.01-.22.01-.34.01h-.78c.06 1.25.45 2.24 1.16 2.97s1.59 1.09 2.64 1.09c.45 0 .87-.05 1.25-.15.38-.1.88-.3 1.5-.61l.26.33zm-2.83-4.92c.03-1.26-.14-2.14-.51-2.65-.38-.5-.87-.75-1.47-.75-.62 0-1.13.26-1.53.78-.41.53-.6 1.4-.57 2.61.47.07 1.25.11 2.34.11.69.01 1.27-.03 1.74-.1zM338.72 93.67v.86l-2.5-.04-2.14.04-.11-.1.06-.94.02-.97c-.55.46-1.15.97-1.79 1.55-.25.24-.5.44-.75.61-.3.12-.7.18-1.2.18-1.32 0-2.4-.48-3.27-1.44-.86-.96-1.3-2.28-1.3-3.95 0-.93.13-1.76.38-2.48.19-.55.41-.98.67-1.28.18-.22.72-.64 1.6-1.26.88-.62 1.52-1 1.9-1.15s.88-.22 1.49-.22c.38 0 .7.03.94.08s.68.2 1.29.44c.02-.46.04-.95.04-1.46 0-.6-.02-1.33-.06-2.19-.02-.41-.06-.67-.13-.77a.36.36 0 00-.24-.15c-.1-.02-.59-.05-1.46-.07v-.88c1.69-.17 3.25-.51 4.69-1.03l.31.18c-.1 2.12-.15 3.37-.15 3.74-.02 2.07-.04 4.96-.04 8.69v1.11c0 .54.02 1.12.06 1.75.02.44.06.72.12.81.06.1.15.17.27.22.14.02.57.07 1.3.12zm-4.7-7.59c-.44-.52-.79-.86-1.07-1.02-.52-.3-1.1-.45-1.72-.45-.55 0-.99.13-1.34.4-.34.27-.6.7-.77 1.29-.17.59-.26 1.28-.26 2.06 0 1.44.31 2.56.93 3.34.46.58 1.08.87 1.85.87.59 0 1.1-.17 1.54-.5.44-.33.7-.65.78-.96.08-.31.12-1.25.12-2.83l-.06-2.2zM362.04 92.7l-.52 1.16c-.65.4-1.32.69-2.01.88-.52.13-1.1.2-1.76.2-.78 0-1.48-.09-2.07-.27-.6-.18-1.11-.43-1.53-.75-.42-.32-.8-.71-1.12-1.16-.32-.46-.55-.99-.7-1.59a8.69 8.69 0 01-.21-1.97c0-1.04.14-1.97.42-2.78.19-.57.41-.98.67-1.24.16-.16.57-.46 1.24-.89.67-.44 1.15-.72 1.45-.86.55-.25 1.21-.37 1.96-.37 1.06 0 1.93.22 2.61.67.68.44 1.16 1.01 1.44 1.7s.42 1.53.42 2.51c0 .22-.01.44-.02.64-.2.06-.5.13-.9.21-.54.1-.9.16-1.09.17-.59.05-1.38.08-2.35.08-.97.01-1.51.02-1.62.02-.1.01-.22.01-.34.01h-.78c.06 1.25.45 2.24 1.16 2.97s1.59 1.09 2.64 1.09c.45 0 .87-.05 1.25-.15s.88-.3 1.5-.61l.26.33zm-2.83-4.92c.03-1.26-.14-2.14-.51-2.65-.38-.5-.87-.75-1.47-.75-.62 0-1.13.26-1.53.78-.41.53-.6 1.4-.57 2.61.47.07 1.25.11 2.34.11.69.01 1.27-.03 1.74-.1z"></path></g></svg>